# xmcd CD database file
#
# Track frame offsets:
#	150
#	11539
#	26083
#	39478
#	52203
#	63579
#	76330
#	88668
#	94522
#	106847
#	116435
#	129850
#	143902
#	156514
#	171372
#	182984
#	193852
#	203833
#	216193
#	231755
#
# Disc length: 3293 seconds
#
# Revision: 0
# Processed by: cddbd v1.5.2PL0 Copyright (c) Steve Scherf et al.
# Submitted via: CDex 1.51
#
DISCID=1a0cdb14
DTITLE=Various Artist - Legends of Country Music CD3
DYEAR=2008
DGENRE=Country
TTITLE0=Walkin' After Midnight
TTITLE1=I Can't Stop Loving You
TTITLE2=Ruby Don't Take Your Love To Town
TTITLE3=Rose Garden
TTITLE4=Time In A Bottle
TTITLE5=Silver Wings
TTITLE6=Blue Blue Day
TTITLE7=Have I Told You Lately That I Love You?
TTITLE8=Crystal Chandeliers
TTITLE9=Release Me
TTITLE10=Stand By Your Man
TTITLE11=Devil In Disguise (Christine's Tune)
TTITLE12=Ring Of Fire
TTITLE13=Everything Is Beautiful
TTITLE14=Little Green Apples
TTITLE15=Tender Years
TTITLE16=I'm Sorry
TTITLE17=Shelter Of Your Arms
TTITLE18=Tears
TTITLE19=For The Good Times
EXTD=YEAR: 2008
EXTT0=
EXTT1=
EXTT2=
EXTT3=
EXTT4=
EXTT5=
EXTT6=
EXTT7=
EXTT8=
EXTT9=
EXTT10=
EXTT11=
EXTT12=
EXTT13=
EXTT14=
EXTT15=
EXTT16=
EXTT17=
EXTT18=
EXTT19=
PLAYORDER=
